<svg width="31" height="31" viewBox="0 0 31 31" fill="none" xmlns="http://www.w3.org/2000/svg">
<circle cx="15.5" cy="15.5" r="14" stroke="#283028" stroke-width="3"/>
<path d="M17.3358 14.387C18.0725 14.421 18.6533 14.7128 19.0783 15.2625C19.5033 15.8122 19.7158 16.4922 19.7158 17.3025C19.7158 17.9995 19.5656 18.6455 19.2653 19.2405C18.965 19.8298 18.4975 20.3058 17.8628 20.6685C17.2338 21.0255 16.4206 21.204 15.4233 21.204C14.29 21.204 13.4031 21.0113 12.7628 20.626C12.1281 20.235 11.6805 19.7193 11.4198 19.079C11.1648 18.4387 11.0373 17.736 11.0373 16.971V16.937H13.6723V16.971C13.6723 17.8323 13.831 18.4132 14.1483 18.7135C14.4713 19.0082 14.9076 19.1555 15.4573 19.1555C15.9333 19.1555 16.3215 19.0053 16.6218 18.705C16.9221 18.4047 17.0723 17.9145 17.0723 17.2345C17.0723 16.6565 16.9363 16.206 16.6643 15.883C16.3923 15.56 15.8993 15.3985 15.1853 15.3985H14.7433V13.554H15.1853C15.8936 13.554 16.3838 13.3812 16.6558 13.0355C16.9335 12.6842 17.0723 12.2847 17.0723 11.837C17.0723 11.31 16.925 10.9275 16.6303 10.6895C16.3356 10.4515 15.9588 10.3325 15.4998 10.3325C14.9671 10.3325 14.528 10.477 14.1823 10.766C13.8423 11.055 13.6723 11.5792 13.6723 12.3385H11.0373C11.0373 11.6132 11.1846 10.9417 11.4793 10.324C11.774 9.70633 12.2443 9.2105 12.8903 8.8365C13.542 8.4625 14.3948 8.2755 15.4488 8.2755C16.4461 8.2755 17.2593 8.43983 17.8883 8.7685C18.5173 9.09717 18.9791 9.52217 19.2738 10.0435C19.5685 10.5648 19.7158 11.1173 19.7158 11.701C19.7158 12.177 19.6195 12.6162 19.4268 13.0185C19.2341 13.4208 18.9593 13.7467 18.6023 13.996C18.2453 14.2397 17.8231 14.37 17.3358 14.387Z" fill="#283028"/>
</svg>
