<svg width="31" height="31" viewBox="0 0 31 31" fill="none" xmlns="http://www.w3.org/2000/svg">
<circle cx="15.5" cy="15.5" r="14" stroke="#283028" stroke-width="3"/>
<path d="M11.0189 21V18.841C11.0699 18.7163 11.2172 18.5322 11.4609 18.2885C11.7102 18.0392 12.0162 17.7587 12.3789 17.447C12.7416 17.1353 13.1184 16.818 13.5094 16.495C13.9004 16.1663 14.2631 15.8632 14.5974 15.5855C14.9941 15.2568 15.3794 14.9168 15.7534 14.5655C16.1331 14.2085 16.4447 13.8317 16.6884 13.435C16.9321 13.0383 17.0539 12.6162 17.0539 12.1685C17.0539 11.6132 16.9207 11.1683 16.6544 10.834C16.3881 10.4997 15.9716 10.3325 15.4049 10.3325C14.7136 10.3325 14.2347 10.5535 13.9684 10.9955C13.7021 11.4375 13.5689 12.0183 13.5689 12.738H10.9339C10.9339 11.3667 11.3221 10.2815 12.0984 9.4825C12.8747 8.67783 13.9911 8.2755 15.4474 8.2755C16.3881 8.2755 17.1729 8.44833 17.8019 8.794C18.4366 9.13967 18.9126 9.61 19.2299 10.205C19.5472 10.7943 19.7059 11.4573 19.7059 12.194C19.7059 12.6983 19.6096 13.1687 19.4169 13.605C19.2242 14.0357 18.9777 14.4352 18.6774 14.8035C18.3771 15.1662 18.0541 15.5005 17.7084 15.8065C17.3627 16.1068 17.0369 16.3788 16.7309 16.6225C15.9546 17.2345 15.3341 17.7388 14.8694 18.1355C14.4104 18.5322 14.1441 18.8155 14.0704 18.9855H19.6294V21H11.0189Z" fill="#283028"/>
</svg>
