<svg width="37" height="693" viewBox="0 0 37 693" fill="none" xmlns="http://www.w3.org/2000/svg">
<circle cx="18.3547" cy="674.355" r="16.9087" stroke="#393939" stroke-width="2.89218"/>
<path d="M18.9701 682.279V679.143H12.0562V676.761L17.8842 665.914H22.3273V676.55H24.2773V679.143H22.3273V682.279H18.9701ZM18.9701 676.55V669.659L15.4023 676.55H18.9701Z" fill="#393939"/>
<circle cx="18.3547" cy="18.3547" r="16.9087" stroke="#393939" stroke-width="2.89218"/>
<path d="M21.1012 10.6478V27.0128H17.6886V13.861C17.5926 13.9348 17.3858 14.0309 17.0681 14.1491C16.7579 14.2599 16.3849 14.367 15.9491 14.4704C15.5132 14.5738 15.0627 14.644 14.5973 14.6809V11.9774C15.0627 11.9257 15.5132 11.826 15.9491 11.6782C16.3923 11.5305 16.7764 11.3643 17.1014 11.1796C17.4264 10.995 17.6406 10.8177 17.744 10.6478H21.1012Z" fill="#393939"/>
<circle cx="18.3547" cy="233.355" r="16.9087" stroke="#393939" stroke-width="2.89218"/>
<path d="M12.5136 242.013V239.199C12.5801 239.036 12.7721 238.796 13.0897 238.478C13.4148 238.153 13.8136 237.788 14.2864 237.381C14.7591 236.975 15.2503 236.562 15.76 236.14C16.2697 235.712 16.7424 235.317 17.1782 234.955C17.6953 234.526 18.1976 234.083 18.6851 233.625C19.18 233.16 19.5863 232.669 19.9039 232.152C20.2215 231.635 20.3803 231.084 20.3803 230.501C20.3803 229.777 20.2067 229.197 19.8596 228.761C19.5124 228.325 18.9695 228.108 18.2308 228.108C17.3297 228.108 16.7055 228.396 16.3583 228.972C16.0112 229.548 15.8376 230.305 15.8376 231.243H12.4028C12.4028 229.456 12.9088 228.041 13.9207 227C14.9327 
25.951 16.3879 225.426 18.2862 225.426C19.5124 225.426 20.5354 225.651 21.3554 226.102C22.1827 226.553 22.8031 227.166 23.2168 227.941C23.6304 228.71 23.8373 229.574 23.8373 230.534C23.8373 231.191 23.7117 231.805 23.4605 232.373C23.2094 232.935 22.8881 233.455 22.4966 233.936C22.1051 234.408 21.6841 234.844 21.2335 235.243C20.7829 235.634 20.3582 235.989 19.9593 236.307C18.9473 237.104 18.1385 237.762 17.5328 238.279C16.9345 238.796 16.5873 239.165 16.4913 239.387H23.7375V242.013H12.5136Z" fill="#393939"/>
<circle cx="18.3547" cy="449.355" r="16.9087" stroke="#393939" stroke-width="2.89218"/>
<path d="M20.7478 449.393C21.708 449.437 22.4652 449.818 23.0192 450.534C23.5732 451.251 23.8502 452.137 23.8502 453.193C23.8502 454.102 23.6544 454.944 23.2629 455.719C22.8714 456.488 22.262 457.108 21.4347 457.581C20.6148 458.046 19.5548 458.279 18.2548 458.279C16.7775 458.279 15.6215 458.028 14.7868 457.525C13.9595 457.016 13.376 456.344 13.0362 455.509C12.7038 454.674 12.5376 453.758 12.5376 452.761V452.717H15.9723V452.761C15.9723 453.884 16.1792 454.641 16.5928 455.032C17.0139 455.417 17.5826 455.609 18.2991 455.609C18.9196 455.609 19.4256 455.413 19.8171 455.021C20.2086 454.63 20.4043 453.991 20.4043 453.105C20.4043 452.351 20.227 451.764 19.8725 451.343C19.5179 450.922 18.8753 450.711 17.9446 450.711H17.3684V448.307H17.9446C18.8679 448.307 19.5068 448.082 19.8614 447.631C20.2233 447.173 20.4043 446.652 20.4043 446.069C20.4043 445.382 20.2123 444.883 19.8281 444.573C19.444 444.263 18.9528 444.108 18.3545 444.108C17.6602 444.108 17.0877 444.296 16.6371 444.673C16.1939 445.049 15.9723 445.733 15.9723 446.723H12.5376C12.5376 445.777 12.7296 444.902 13.1137 444.097C13.4978 443.291 14.1109 442.645 14.953 442.158C15.8024 441.67 16.9141 441.426 18.288 441.426C19.5881 441.426 20.6481 441.641 21.468 442.069C22.2879 442.497 22.8899 443.051 23.274 443.731C23.6581 444.411 23.8502 445.131 23.8502 445.892C23.8502 446.512 23.7246 447.084 23.4734 447.609C23.2223 448.133 22.864 448.558 22.3987 448.883C21.9333 449.201 21.383 449.371 20.7478 449.393Z" fill="#393939"/>
<path d="M18 60L18 190" stroke="black" stroke-opacity="0.4" stroke-width="2"/>
<path d="M18 269L18 402" stroke="black" stroke-opacity="0.4" stroke-width="2"/>
<path d="M18 484L18 637" stroke="black" stroke-opacity="0.4" stroke-width="2"/>
</svg>
