<svg width="170" height="170" viewBox="0 0 170 170" fill="none" xmlns="http://www.w3.org/2000/svg">
<path d="M169.022 53.2054L146.111 30.4051C144.816 29.1162 142.722 29.1162 141.427 30.4051L120.833 50.8998L100.239 30.4051C98.9443 29.1162 96.8502 29.1162 95.5553 30.4051L72.6445 53.2054C72.0182 53.8286 71.6663 54.6756 71.6663 55.5588V80.7939H30.4974C29.4684 80.7939 28.4982 81.2707 27.8694 82.0848L1.08209 116.774C1.01104 116.867 0.945625 116.961 0.885527 117.058C0.337676 117.651 0 118.44 0 119.31V166.46C0 168.294 1.48684 169.78 3.32031 169.78H166.68C168.513 169.78 170 168.294 170 166.46V55.5588C170 54.6756 169.648 53.8286 169.022 53.2054ZM78.3063 74.1529H97.6683C99.5018 74.1529 100.989 72.6664 100.989 70.8326C100.989 68.9988 99.5018 67.5123 97.6683 67.5123H78.3063V56.9387L97.8964 37.4432L117.487 56.9387V80.7939H78.3063V74.1529ZM90.9786 163.14H6.64062V155.503H59.5302C61.3637 155.503 62.8505 154.016 62.8505 152.182C62.8505 150.348 61.3637 148.862 59.5302 148.862H6.64062V142.553H20.4156C22.2491 142.553 23.7359 141.067 23.7359 139.233C23.7359 137.399 22.2491 135.913 20.4156 135.913H6.64062V122.631H90.9786V163.14ZM10.0781 115.99L32.1287 87.4345H114.76L92.6699 115.99H10.0781ZM117.812 145.159L113.512 153.204V137.115L117.812 145.159ZM115.731 127.179H127.422L121.577 138.115L115.731 127.179ZM120.858 163.14H115.732L121.577 152.203L127.422 163.14H120.858ZM129.641 153.204L125.342 145.159L129.641 137.115V153.204ZM145.433 163.14H136.282V123.858C136.282 122.025 134.795 120.538 132.961 120.538H110.192C108.358 120.538 106.871 122.025 106.871 123.858V163.14H97.6192V120.445L121.517 89.5525L145.433 120.582V163.14ZM163.359 65.1881H152.517C150.683 65.1881 149.197 66.6746 149.197 68.5084C149.197 70.3422 150.683 71.8287 152.517 71.8287H163.359V81.4579H144.75C142.917 81.4579 141.43 82.9444 141.43 84.7782C141.43 86.612 142.917 88.0985 144.75 88.0985H163.359V163.139H152.074V119.452C152.074 118.718 151.831 118.006 151.384 117.425L124.415 82.4341C124.381 82.3896 124.343 82.3498 124.307 82.3073C124.267 82.2455 124.223 82.1874 124.179 82.1286V56.9391L143.769 37.4435L163.359 56.9387V65.1881Z" fill="#283028"/>
</svg>
