<svg width="170" height="170" viewBox="0 0 170 170" fill="none" xmlns="http://www.w3.org/2000/svg">
<path d="M166.68 81.6797H152.889C158.823 78.2664 162.83 71.8662 162.83 64.5432C162.83 56.941 158.517 50.1739 151.946 46.8812C153.08 44.361 153.668 41.6241 153.668 38.7969C153.668 27.9016 144.804 19.0373 133.909 19.0373C130.473 19.0373 127.174 19.9039 124.234 21.5624C120.377 18.8438 115.764 17.3699 111.001 17.3699C110.678 17.3699 110.358 17.3812 110.038 17.3945C106.53 7.16855 96.7483 0.0159375 85.7315 0.0159375C75.7971 0.0159375 66.8077 5.76971 62.5723 14.5861C61.7777 14.5124 60.9795 14.4752 60.182 14.4752C49.7413 14.4752 40.4683 20.7802 36.5092 30.1816C35.8066 29.9671 35.0917 29.7799 34.3662 29.6175C34.7467 25.3738 36.0928 22.1206 38.3895 19.9332C40.3899 18.0276 42.3994 17.6329 42.4841 17.6169L42.4379 17.6246L42.4372 17.6209C43.1392 17.5176 43.8036 17.1939 44.3079 16.6872C44.9252 16.0696 45.2808 15.2163 45.2808 14.3431C45.2808 13.4665 44.9255 12.6132 44.3079 11.9923C43.6903 11.3747 42.8337 11.0195 41.9604 11.0195C41.7742 11.0195 41.5892 11.039 41.4066 11.0703L41.4056 11.0646C39.434 11.3751 36.7376 12.4801 34.2507 14.7253V3.32031C34.2507 1.4865 32.7638 0 30.9304 0H22.9616C21.1281 0 19.6413 1.4865 19.6413 3.32031V15.7353C15.8216 11.054 11.6981 8.31738 11.3784 8.10853C9.84473 7.10812 7.79344 7.54043 6.79037 9.07176C5.78697 10.6034 6.21562 12.6604 7.74496 13.6667C7.85486 13.7388 17.9005 20.4657 19.393 30.1428C8.15734 33.5179 0 43.3928 0 55.0222C0 59.8539 2.75553 71.4558 5.45992 81.6797H3.32031C1.48684 81.6797 0 83.1662 0 85V166.68C0 168.513 1.48684 170 3.32031 170H166.68C168.513 170 170 168.513 170 166.68V85C170 83.1662 168.513 81.6797 166.68 81.6797ZM60.182 21.1159C61.4593 21.1159 62.7383 21.2437 63.9844 21.496C65.6061 21.8241 67.2214 20.9093 67.7732 19.3495C70.4604 11.7576 77.6771 6.65656 85.7315 6.65656C93.5807 6.65656 100.586 11.5504 103.429 18.6568C94.4602 21.7949 88.0075 30.337 88.0075 40.363C88.0075 42.1969 89.4944 43.6834 91.3279 43.6834C93.1613 43.6834 94.6482 42.1969 94.6482 40.363C94.6482 31.3461 101.984 24.0105 111.001 24.0105C115 24.0105 118.851 25.4724 121.844 28.1274C123.024 29.1743 124.779 29.2456 126.04 28.2987C128.324 26.5841 131.044 25.678 133.908 25.678C141.141 25.678 147.027 31.5632 147.027 38.7969C147.027 41.6407 146.132 44.3464 144.438 46.6208C143.776 47.5103 143.602 48.6721 143.974 49.717C144.346 50.7619 145.215 51.5522 146.29 51.8234C152.119 53.293 156.189 58.5235 156.189 64.5432C156.189 71.7769 150.304 77.6621 143.071 77.6621C142.247 77.6621 141.41 77.5818 140.583 77.4234C138.974 77.1139 137.381 78.0264 136.83 79.5696C136.57 80.2991 136.241 81.0053 135.854 81.6797H131.663L145.259 62.1895C145.77 61.457 145.964 60.5492 145.798 59.6717C145.632 58.7941 145.119 58.0205 144.375 57.5257L134.695 51.0837C133.941 50.5816 133.014 50.4093 132.13 50.6075C131.246 50.8054 130.481 51.3556 130.013 52.1312L125.172 60.1465L129.135 40.1021C129.488 38.3128 128.333 36.5732 126.546 36.206L118.098 34.4685C117.225 34.2885 116.316 34.4678 115.576 34.9652C114.836 35.4626 114.328 36.2366 114.165 37.1128L113.081 42.935H105.332C103.498 42.935 102.012 44.4215 102.012 46.2553V65.3617C99.8049 54.063 89.835 45.5082 77.9005 45.5082C72.5226 45.5082 67.4146 47.2145 63.1294 50.4429C59.5956 53.1047 56.8202 56.7279 55.1501 60.8012C55.5731 58.3077 55.7816 56.3952 55.7816 55.0226C55.7816 50.5199 54.5587 46.2795 52.4081 42.5774C54.1526 37.831 58.6879 34.6066 63.8177 34.6066C64.6329 34.6066 65.4497 34.6886 66.2459 34.85C67.8685 35.18 69.4862 34.2626 70.037 32.7011C70.7495 30.683 71.9894 28.8778 73.6229 27.4806C75.0162 26.2886 75.1795 24.1925 73.9875 22.7989C72.7959 21.4054 70.7001 21.2424 69.3059 22.434C67.4817 23.9946 65.9756 25.8865 64.8656 27.9952C64.5167 27.9756 64.167 27.966 63.8181 27.966C57.2093 27.966 51.2394 31.4258 47.8713 36.8219C46.2941 35.3036 44.5237 33.9638 42.595 32.8382C45.5102 25.8251 52.4098 21.1159 60.182 21.1159ZM121.398 79.2409L133.904 58.5338L137.871 61.1738L123.566 81.6797H120.916L121.398 79.2409ZM117.245 66.0068V56.7873C117.262 56.7176 117.281 56.6485 117.295 56.5768L120.073 41.654L121.981 42.0464L117.245 66.0068ZM108.628 75.9199C108.643 75.7941 108.652 75.6666 108.652 75.5371V49.5753H110.604V81.6797H109.556C109.565 81.4718 109.57 81.2636 109.57 81.0548C109.57 79.2449 109.234 77.5144 108.628 75.9199ZM63.0859 60.4297C62.9877 60.4297 62.891 60.436 62.7928 60.437C66.039 55.3968 71.7274 52.1485 77.9002 52.1485C86.6731 52.1485 93.9897 58.484 95.5277 66.819C90.9334 66.8515 86.862 69.1634 84.3426 72.7006C80.0856 65.372 72.1547 60.4297 63.0859 60.4297ZM80.7025 81.6797H45.992H45.4697C47.0319 73.3749 54.3346 67.0703 63.0863 67.0703C71.838 67.0703 79.1403 73.3749 80.7025 81.6797ZM95.625 73.4573C99.6529 73.4573 102.93 76.8656 102.93 81.0548C102.93 81.2643 102.92 81.4725 102.903 81.6797H88.3462C88.3299 81.4725 88.32 81.2643 88.32 81.0548C88.3203 76.8656 91.5971 73.4573 95.625 73.4573ZM26.2819 6.64062H27.6101V28.9056C27.1648 28.91 26.7219 28.9219 26.2819 28.9455V6.64062ZM6.83885 52.3979C7.04604 52.4384 7.25986 52.4609 7.47867 52.4609H23.8936C25.7271 52.4609 27.2139 50.9744 27.2139 49.1406C27.2139 47.3068 25.7271 45.8203 23.8936 45.8203H9.16605C12.7553 39.706 19.8013 35.5396 27.8906 35.5396C39.608 35.5396 49.1406 44.2794 49.1406 55.0222C49.1406 55.8885 49.0022 57.4869 48.4746 60.4297H35.2866C33.4531 60.4297 31.9663 61.9162 31.9663 63.75C31.9663 65.5838 33.4531 67.0703 35.2866 67.0703H46.312C42.2835 70.8419 39.5247 75.9488 38.7464 81.6797H12.332C8.70453 68.1375 6.64062 58.488 6.64062 55.0222C6.64062 54.1321 6.71201 53.2571 6.83885 52.3979ZM163.359 108.906H134.141C132.307 108.906 130.82 110.393 130.82 112.227C130.82 114.06 132.307 115.547 134.141 115.547H163.359V136.133H58.6387C56.8052 136.133 55.3184 137.619 55.3184 139.453C55.3184 141.287 56.8052 142.773 58.6387 142.773H163.359V163.359H6.64062V142.773H35.8594C37.6929 142.773 39.1797 141.287 39.1797 139.453C39.1797 137.619 37.6929 136.133 35.8594 136.133H6.64062V115.547H111.361C113.195 115.547 114.682 114.06 114.682 112.227C114.682 110.393 113.195 108.906 111.361 108.906H6.64062V88.3203H9.78928H163.359V108.906Z" fill="#283028"/>
</svg>
