<svg width="100%" preserveAspectRatio="none"  height="1280" viewBox="0 0 1440 1280" fill="none" xmlns="http://www.w3.org/2000/svg">
<path  d="M1235.03 377.367C1314.1 308.407 1327.53 128.885 1397.25 40.6111C1409.87 24.4229 1424.37 11.3964 1440 0.933594V1184.42C1366.68 1173.17 1304.96 1164.46 1191.5 1171.13C1053.57 1179.24 999.907 1246.59 861.5 1258.92C723.025 1271.86 603.041 1239.8 469.5 1208.62C299 1161.64 146.5 1302.11 0 1276.96V792.5C134 739.824 168.5 779.212 257.5 792.5L260.48 792.945C340.794 804.945 371.206 809.489 469.5 763.077C569 716.096 669.5 764.501 741 726.062C861.285 661.395 842.125 524.222 926.673 464.475C1011.22 404.728 1155.95 446.328 1235.03 377.367Z" fill="#90C67D" fill-opacity="0.18"/>
</svg>
