<svg width="25" height="25" viewBox="0 0 25 25" fill="none" xmlns="http://www.w3.org/2000/svg">
<path d="M22.9127 0.769043H2.06153C1.34756 0.769472 0.768778 1.34854 0.768921 2.0628V22.9139C0.76935 23.6279 1.34842 24.2067 2.06268 24.2065H13.2888V15.1428H10.2446V11.5952H13.2888V8.98433C13.2888 5.95665 15.1371 4.3087 17.8379 4.3087C19.1315 4.3087 20.2432 4.40512 20.5672 4.44818V7.61261H18.7048C17.2354 7.61261 16.9509 8.31084 16.9509 9.33566V11.5952H20.4642L20.0064 15.1428H16.9509V24.2065H22.9127C23.6271 24.2067 24.2063 23.6278 24.2064 22.9134C24.2064 22.9132 24.2064 22.9131 24.2064 22.9128V2.06165C24.2061 1.34768 23.6269 0.7689 22.9127 0.769043Z" fill="#283028"/>
</svg>
