<svg width="25" height="25" viewBox="0 0 25 25" fill="none" xmlns="http://www.w3.org/2000/svg">
<path d="M12.5 0C5.59667 0 0 5.59642 0 12.5C0 19.4036 5.59667 25 12.5 25C19.4033 25 25 19.4036 25 12.5C25 5.59642 19.4033 0 12.5 0ZM13.9384 16.6519C12.7821 16.6519 11.6946 16.0269 11.3223 15.3171C11.3223 15.3171 10.7003 17.7839 10.5696 18.2598C10.1059 19.9427 8.74194 21.6261 8.63581 21.7639C8.56189 21.8598 8.39847 21.8299 8.38159 21.7026C8.35268 21.4882 8.00435 19.3652 8.41407 17.6338C8.61893 16.7642 9.79079 11.799 9.79079 11.799C9.79079 11.799 9.44962 11.1153 9.44962 10.1046C9.44962 8.51765 10.3693 7.33299 11.5146 7.33299C12.4882 7.33299 12.9583 8.06419 12.9583 8.94067C12.9583 9.91969 12.3353 11.3836 12.0138 12.7402C11.745 13.876 12.5829 14.8026 13.7031 14.8026C15.732 14.8026 17.0974 12.1969 17.0974 9.10921C17.0974 6.76292 15.5179 5.00588 12.6427 5.00588C9.3954 5.00588 7.37033 7.42813 7.37033 10.1343C7.37033 11.0668 7.64604 11.7253 8.07724 12.234C8.27494 12.468 8.30307 12.5621 8.2312 12.8307C8.17928 13.0279 8.0624 13.502 8.01279 13.6895C7.94143 13.9611 7.72199 14.0578 7.47621 13.9578C5.98107 13.3473 5.28389 11.709 5.28389 9.86726C5.28389 6.82558 7.84885 3.17826 12.9366 3.17826C17.0248 3.17826 19.7156 6.13632 19.7156 9.31228C19.7159 13.5138 17.3801 16.6519 13.9384 16.6519Z" fill="#283028"/>
</svg>
