<svg width="170" height="170" viewBox="0 0 170 170" fill="none" xmlns="http://www.w3.org/2000/svg">
<g clip-path="url(#clip0)">
<path d="M128.645 126.565H128.576C126.743 126.565 125.257 128.052 125.257 129.885C125.257 131.719 126.743 133.205 128.576 133.205H128.645C130.478 133.205 131.965 131.719 131.965 129.885C131.965 128.052 130.478 126.565 128.645 126.565Z" fill="#283028"/>
<path d="M147.929 126.565H147.861C146.027 126.565 144.541 128.052 144.541 129.885C144.541 131.719 146.027 133.205 147.861 133.205H147.929C149.763 133.205 151.249 131.719 151.249 129.885C151.249 128.052 149.763 126.565 147.929 126.565Z" fill="#283028"/>
<path fill-rule="evenodd" clip-rule="evenodd" d="M149 163.169H124.825V154.575C124.825 151.851 125.385 149.191 126.46 146.729C127.19 147.787 127.523 149.069 127.523 151.275C127.523 157.387 134.049 159.794 137.905 160.253C138.035 160.268 138.166 160.276 138.297 160.276C138.751 160.276 141.076 159.958 143.363 158.951C148.33 156.764 149.071 153.203 149.071 151.275C149.071 147.165 150.212 146.253 152.966 144.051C153.985 143.236 155.139 142.313 156.341 141.112C157.619 139.834 159.412 137.128 160.235 128.407C160.432 126.323 160.531 124.35 160.581 122.834C162.434 122.344 164.772 121.34 166.696 119.283C169.122 116.689 170.222 113.18 169.963 108.854C169.902 107.827 169.41 106.873 168.56 106.295C167.71 105.716 166.681 105.551 165.704 105.869C164.707 106.154 163.697 106.125 162.704 105.783C162.664 105.769 162.623 105.758 162.583 105.745C163.323 103.61 163.573 101.351 163.287 99.0892C162.816 95.3665 160.886 91.8865 158.25 90.0069C157.262 89.3016 155.966 89.1931 154.873 89.723C153.78 90.2536 153.064 91.3386 153.006 92.5519C152.9 94.7742 152.133 96.419 151.131 97.6326L149.813 93.548C143.894 75.2189 126.978 62.9045 107.717 62.9045H56.3463H49.5273H33.3711C17.9044 62.9045 5.32146 75.4875 5.32146 90.9542V119.078C2.19937 120.501 0 123.865 0 127.78C0 129.962 0.721835 133.489 1.75545 136.356C3.45743 141.078 5.77434 143.472 8.64143 143.472C11.5085 143.472 13.8258 141.078 15.5274 136.356C16.561 133.489 17.2829 129.962 17.2829 127.78C17.2829 123.865 15.0835 120.501 11.9614 119.078V90.9538C11.9614 80.9325 18.8832 72.5006 28.1967 70.18C27.0894 71.0386 26.0266 71.9683 25.0145 72.9674C21.2549 76.6798 18.4327 81.1553 16.6879 86.0232C16.644 86.1188 16.6039 86.2171 16.5687 86.3183C12.3236 98.5437 15.1117 111.925 23.8295 121.385L23.8381 121.395C23.9607 121.528 24.0799 121.662 24.2047 121.793C24.2343 121.825 24.2668 121.852 24.2977 121.881C25.4206 123.058 26.6292 124.163 27.9221 125.183C31.1143 127.7 32.9537 131.477 32.9686 135.543L33.0689 163.17H24.2977C22.4642 163.17 20.9777 164.657 20.9777 166.49C20.9777 168.324 22.4639 169.81 24.2977 169.81L33.0689 169.81H60.9897H98.7117H102.028H102.032H111.764H111.771H121.504H121.507H124.825H149C150.834 169.81 152.32 168.323 152.32 166.49C152.32 164.656 150.833 163.169 149 163.169ZM60.9897 154.575V163.17H98.7117V154.575C98.7117 150.658 97.5559 146.869 95.3692 143.619C93.8007 141.287 92.6372 138.756 91.8845 136.075H67.8169C67.0642 138.756 65.9011 141.287 64.3323 143.619C62.1455 146.868 60.9897 150.657 60.9897 154.575ZM6.63995 127.78C6.63995 129.825 7.65463 133.575 8.64143 135.683C9.62822 133.575 10.6426 129.825 10.6426 127.78C10.6426 126.27 9.72651 124.994 8.64143 124.994C7.55635 124.994 6.63995 126.269 6.63995 127.78ZM138.297 153.597C139.931 153.298 142.431 152.367 142.431 151.275C142.431 150.796 142.445 150.338 142.472 149.898H134.121C134.148 150.338 134.163 150.796 134.163 151.275C134.163 152.367 136.663 153.298 138.297 153.597ZM155.295 105.609C156.363 104.01 156.718 102.464 156.759 101.188C155.835 102.432 154.758 103.464 153.635 104.312C154.203 104.721 154.758 105.153 155.295 105.609ZM79.68 79.5997C87.16 79.5997 93.9574 75.7037 97.791 69.5438H61.5691C65.4027 75.7037 72.2004 79.5997 79.68 79.5997ZM28.0941 116.185H31.9287C34.6866 116.185 37.2804 114.97 39.0458 112.852C40.8112 110.734 41.5387 107.963 41.0413 105.251C39.8437 98.7167 34.6487 93.5221 28.1144 92.3241L22.0585 91.2138C21.4259 93.8541 21.1703 96.597 21.3243 99.3612C21.6723 105.607 24.0838 111.511 28.0941 116.185ZM118.185 163.169V154.575C118.185 150.198 119.266 145.943 121.326 142.126C120.974 141.81 120.616 141.475 120.254 141.112C118.976 139.834 117.183 137.128 116.359 128.407C116.15 126.182 116.051 124.085 116.005 122.536C114.249 122 112.164 121.002 110.418 119.135C107.992 116.541 106.892 113.032 107.151 108.706C107.212 107.687 107.738 106.753 108.578 106.172C109.41 105.597 110.459 105.433 111.426 105.726C112.341 105.984 113.268 105.975 114.182 105.704C113.442 103.569 113.192 101.31 113.479 99.0481C113.95 95.3253 115.88 91.8453 118.515 89.966C119.504 89.2605 120.8 89.1519 121.892 89.6825C122.985 90.2131 123.701 91.2978 123.759 92.5114C124.024 98.0852 128.442 100.037 130.299 100.614C132.866 99.7931 135.563 99.3655 138.297 99.3655C140.574 99.3655 142.824 99.6653 144.996 100.238L143.494 95.5873C138.465 80.0094 124.087 69.5435 107.718 69.5435H105.278C100.844 79.6213 90.8426 86.2393 79.6814 86.2393C68.5202 86.2393 58.5194 79.6213 54.0845 69.5435H49.5283C42.0504 69.5435 35.0017 72.4371 29.6809 77.6915C27.5273 79.8178 25.754 82.2536 24.3999 84.8919L29.3127 85.7921C38.5434 87.4841 45.8817 94.8226 47.5737 104.053C48.4273 108.709 47.1786 113.466 44.1481 117.102C41.7299 120.004 38.4053 121.914 34.756 122.569C37.8538 126.134 39.5927 130.688 39.6103 135.518L39.7105 163.169H43.7958V154.574C43.7958 149.332 45.3431 144.261 48.2696 139.911C49.7634 137.691 50.7731 135.231 51.2705 132.602L53.8975 118.712C54.2382 116.91 55.9754 115.727 57.7766 116.067C59.5779 116.408 60.7623 118.144 60.4216 119.946L57.7946 133.836C57.1292 137.355 55.7782 140.646 53.7787 143.618C51.5919 146.868 50.4358 150.657 50.4358 154.575V163.169H54.3511V154.575C54.3511 149.332 55.8984 144.261 58.8249 139.911C60.3183 137.691 61.328 135.232 61.8258 132.602L64.4528 118.712C64.7934 116.91 66.5306 115.726 68.3319 116.067C70.1332 116.408 71.3175 118.144 70.9769 119.946L69.1822 129.435H90.5222L88.7272 119.946C88.3862 118.144 89.5702 116.408 91.3722 116.067C93.1728 115.727 94.9106 116.91 95.2513 118.712L97.8783 132.602C98.3757 135.231 99.3851 137.691 100.879 139.911C103.806 144.262 105.353 149.332 105.353 154.575V163.169H108.445V154.575C108.445 150.657 107.289 146.868 105.102 143.618C103.103 140.646 101.752 137.355 101.086 133.836L98.4594 119.946C98.1184 118.144 99.3024 116.408 101.104 116.067C102.906 115.727 104.643 116.91 104.983 118.712L107.61 132.602C108.108 135.231 109.117 137.691 110.611 139.911C113.495 144.197 115.036 149.182 115.081 154.342C115.086 154.419 115.092 154.496 115.092 154.575V163.169H118.185ZM121.471 105.468C121.99 105.035 122.522 104.619 123.07 104.229C121.968 103.389 120.913 102.37 120.005 101.148C120.044 102.39 120.38 103.888 121.384 105.442C121.397 105.446 121.409 105.449 121.422 105.453L121.454 105.463L121.471 105.468ZM119.729 116.514C119.702 116.514 116.963 116.413 115.267 114.599C114.735 114.031 114.343 113.322 114.091 112.478C114.928 112.381 115.758 112.193 116.571 111.913C117.138 111.718 117.708 111.645 118.267 111.658C118.65 111.653 119.722 111.86 119.918 111.933C121.83 112.51 123.379 113.82 123.826 114.226C124.388 114.982 124.669 115.644 124.794 116.001C125.093 117.528 126.437 118.681 128.051 118.681H128.119C129.953 118.681 131.439 117.194 131.439 115.361C131.439 114.828 131.31 114.326 131.087 113.879C130.778 112.973 130.194 111.649 129.115 110.211C129.107 110.2 129.098 110.189 129.09 110.177L128.943 109.987L128.939 109.989C128.828 109.854 128.701 109.715 128.563 109.574C128.602 109.61 128.64 109.645 128.675 109.681C128.631 109.636 128.585 109.592 128.539 109.55C128.352 109.362 128.139 109.171 127.916 108.98C131.014 107.05 134.609 106.006 138.297 106.006C142.142 106.006 145.889 107.14 149.073 109.232C148.893 109.391 148.72 109.549 148.565 109.706C148.545 109.724 148.525 109.743 148.505 109.763C148.519 109.749 148.534 109.736 148.549 109.723C148.411 109.862 148.286 110.001 148.174 110.136L148.171 110.133L148.024 110.323L147.997 110.359C146.963 111.739 146.383 113.013 146.065 113.915C145.908 114.239 145.801 114.591 145.756 114.963C145.736 115.054 145.721 115.126 145.713 115.172L145.739 115.176C145.738 115.195 145.737 115.214 145.736 115.233C145.733 115.275 145.73 115.317 145.73 115.36C145.73 117.194 147.216 118.68 149.05 118.68H149.118C150.735 118.68 152.08 117.524 152.376 115.994C152.522 115.617 152.798 115.031 153.287 114.373C153.977 113.746 157.31 110.949 160.541 112.061C161.354 112.341 162.184 112.529 163.022 112.625C162.775 113.453 162.393 114.15 161.878 114.713C160.204 116.537 157.468 116.658 157.385 116.662L157.384 116.662V116.666C157.359 116.665 157.335 116.662 157.31 116.662H157.29C155.457 116.672 153.979 118.167 153.989 120.001C154.029 127.275 152.911 135.1 151.645 136.417C150.703 137.358 149.745 138.124 148.818 138.865C147.253 140.117 145.661 141.391 144.457 143.258H132.136C130.932 141.391 129.34 140.117 127.774 138.865L127.77 138.862C127.655 138.77 127.538 138.677 127.422 138.583C126.606 137.928 125.77 137.239 124.949 136.418C123.764 135.187 122.712 128.276 122.611 121.441C122.871 120.971 123.021 120.433 123.025 119.858C123.038 118.024 121.562 116.527 119.729 116.514Z" fill="#283028"/>
</g>
<defs>
<clipPath id="clip0">
<rect width="170" height="170" fill="white"/>
</clipPath>
</defs>
</svg>
